<svg height="87.145485mm" viewBox="0 0 729.45121 308.78321" width="205.86734mm" xmlns="http://www.w3.org/2000/svg" xmlns:xlink="http://www.w3.org/1999/xlink"><clipPath id="a"><path d="m824.112-112.896h-806.4v-369.36h806.4z"/></clipPath><clipPath id="b"><path d="m649.728-434.304.288 2.448.144 2.448.288 2.592.144 2.448.288 2.448.288 2.448.144 2.592.288 2.448.144 2.448.288 2.448.144 2.448.288 2.592.288 2.448.144 2.448.288 2.448.144 2.592.288 2.448.144 2.448.288 2.448.288 2.448.144 2.592.288 2.448.144 2.448.288 2.448 1.152.864 1.008.864 1.152.864 1.008.864 1.008.864 1.008.864 1.008 1.008.864.864.864 1.008.864 1.008.864.864.864 1.008.72 1.152.72 1.008.72 1.008.72 1.152.72 1.008.576 1.152.576 1.152.576 1.152.576 1.152.576 1.152.432 1.152.432 1.296.432 1.152.288.864.288.72.288.864.288.864.288.72.288.864.288.72.288.864.288.864.144.72.288.864.288.864.288.72.288.864.288.72.288.864.288.864.288.72.288.864.288.864.288.72.144.864.288.72.288.864.288 1.008.432 1.152.432 1.152.288 1.152.288 1.152.288 1.152.144 1.008.288 1.152.144 1.008.144 1.152.144 1.008v1.008l.144.864v1.008 1.008l-.144.864v.864l-.144.864-.144.864-.144.864-.288.864-.144.72-.288.864-.288.72-.288.72-.432.72-.432.72-.432.864-.576.576-.576.72-.576.72-.72.576-.72.576-.72.576-.72.432-.864.432-.864.576-.864.288-1.008.432-1.008.288-1.008.432-1.152.288-1.008.144-1.296.288-1.152.144-1.296.144-1.296.144-1.296.144h-1.44l-1.44.144h-34.272l-1.872-4.464-1.872-5.616-2.016-5.76-1.872-5.616-1.872-5.76-2.016-5.616-1.872-5.616-2.016-5.76-1.872-5.616-1.872-5.76-2.016-5.616-1.872-5.76-2.016-5.616-1.872-5.76-2.016-5.616-1.872-5.616-1.872-5.76-2.016-5.616-1.872-5.76-2.016-5.616-1.872-5.76-1.872-5.616-2.016-5.76-1.872-5.616-2.016-5.616.864-.576h22.464l1.008.288.72 2.016.72 2.16.72 2.16.72 2.16.72 2.016.72 2.16.72 2.16.72 2.016.72 2.16.72 2.16.72 2.16.72 2.016.72 2.16.72 2.16.72 2.16.72 2.016.72 2.16.72 2.16.72 2.16.72 2.016.72 2.16.72 2.16.72 2.16.72 2.016.576 1.728h10.224v-1.152l-.288-2.16-.144-2.16-.288-2.16-.288-2.016-.144-2.16-.288-2.16-.144-2.16-.288-2.016-.144-2.16-.288-2.16-.144-2.016-.288-2.16-.144-2.16-.288-2.16-.144-2.016-.288-2.16-.144-2.16-.288-2.16-.144-2.016-.288-2.16-.144-2.16-.288-2.16-.144-2.016-.288-2.16.72-.72h24.624l.288 2.16m-11.232 74.16h-11.232l.576 2.16.864 2.592.864 2.448.864 2.592.864 2.592.864 2.448.864 2.592.864 2.592.864 2.448.864 2.592.864 2.448.864 2.592.864 2.592.864 2.448.864 2.592.864 2.592.864 1.008h11.52l1.008-.144.864-.288.864-.288.72-.288.576-.432.576-.576.432-.576.288-.72.288-.72.144-.864v-.864l-.144-1.008-.144-1.152-.288-1.152-.432-1.152-.288-1.296-.432-1.152-.432-1.296-.432-1.152-.432-1.296-.432-1.152-.432-1.296-.432-1.152-.432-1.296-.288-1.152-.432-1.296-.432-1.296-.432-1.152-.432-1.296-.432-1.152-.432-1.296-.288-.72-.144-.576-.288-.576-.288-.576-.288-.432-.288-.576-.288-.576-.288-.432-.432-.432-.288-.576-.432-.432-.432-.432-.432-.432-.432-.432-.432-.432-.432-.432-.576-.288-.432-.432-.576-.288-.432-.288-.576-.432-.432-.144-.432-.288-.576-.288-.432-.144-.432-.144-.576-.144-.432-.144-.432-.144h-.576l-.432-.144"/></clipPath><clipPath id="c"><path d="m560.592-352.512 47.664 57.312h-24.624l-38.592-48.816 16.56 48.816h-24.336l-47.952-141.264h24.336l15.408 45.216 7.776 10.8 1.584-56.016h27.072z"/></clipPath><clipPath id="d"><path d="m824.112-112.896h-806.4v-369.36h806.4z"/></clipPath><clipPath id="e"><path d="m696.816-436.32h2.016l1.152.144 1.008.144 1.008.144 1.152.144 1.008.288 1.008.144 1.152.288 1.008.288 1.008.288 1.008.432 1.152.288 1.008.432 1.008.432 1.008.432 1.008.576 1.152.432 1.008.576 1.008.576 1.008.576 1.008.72 1.008.576 1.008.72 1.008.72 1.008.72 1.008.72 1.008.864 1.008.72.864.72.864.864.864.864.864.864.864.72.72.864.864.864.72.864.72 1.008.72.864.72.864.576 1.008.576.864.72 1.008.576 1.008.576 1.008.432 1.008.576 1.008.432 1.008.432 1.008.432 1.008.432 1.152.432 1.008 1.152 3.168 1.296 4.032 1.296 4.032 1.44 4.032 1.296 4.032 1.44 3.888 1.296 4.032 1.44 4.032 1.296 4.032 1.44 4.032 1.296 4.032 1.44 4.032 1.296 3.888 1.44 4.032 1.296 4.032 1.44 4.032 1.296 4.032 1.44 4.032 1.296 4.032 1.296 3.888 1.44 4.032 1.296 4.032 1.44 4.032 1.296 4.032 1.44 4.032 1.296 4.032 1.296 3.744h-23.76l-1.152-1.728-1.296-4.032-1.44-4.032-1.296-4.032-1.44-4.032-1.296-3.888-1.44-4.032-1.296-4.032-1.44-4.032-1.296-3.888-1.296-4.032-1.44-4.032-1.296-4.032-1.44-4.032-1.296-3.888-1.44-4.032-1.296-4.032-1.44-4.032-1.296-4.032-1.296-3.888-1.44-4.032-1.296-4.032-1.44-4.032-1.296-3.888-1.44-4.032-1.296-4.032-1.44-4.032-.288-1.152-.144-.288-.144-.432-.144-.288-.144-.288-.144-.432-.288-.288-.144-.288-.144-.432-.144-.288-.288-.288-.144-.288-.144-.288-.288-.288-.288-.288-.144-.288-.288-.288-.144-.288-.288-.288-.288-.288-.288-.288-.288-.144-.288-.288-.288-.288-.288-.288-.288-.144-.288-.288-.288-.144-.288-.288-.288-.144-.288-.288-.432-.144-.288-.144-.288-.288-.288-.144-.288-.144-.288-.144-.288-.144-.288-.144-.432-.144h-.288l-.288-.144-.288-.144h-.288l-.288-.144h-.288l-.288-.144h-.288l-.288-.144h-2.736l-.144.144h-.288l-.288.144h-.288l-.288.144h-.144l-.288.144-.288.144h-.144l-.288.144-.144.144-.288.144-.144.144-.288.144-.144.144-.144.144-.288.288-.144.144-.144.144-.144.288-.144.144-.144.288-.144.288-.144.144-.144.288-.144.288-.144.144-.144.288v.288l-.144.288v.288l-.144.288v.288.288.288.288.288.288.288.288.432.288l.144.288v.432l.144.288v.288l.144.432.144.288.432 1.152 1.296 4.032 1.296 4.032 1.44 4.032 1.296 3.888 1.44 4.032 1.296 4.032 1.44 4.032 1.296 3.888 1.44 4.032 1.296 4.032 1.44 4.032 1.296 4.032 1.296 3.888 1.44 4.032 1.296 4.032 1.44 4.032 1.296 4.032 1.44 3.888 1.296 4.032 1.44 4.032 1.296 4.032 1.296 3.888 1.44 4.032 1.296 4.032 1.44 4.032 1.296 4.032.144 1.728h-23.76l-1.296-3.744-1.44-4.032-1.296-4.032-1.44-4.032-1.296-4.032-1.44-4.032-1.296-4.032-1.44-3.888-1.296-4.032-1.44-4.032-1.296-4.032-1.44-4.032-1.296-4.032-1.44-4.032-1.296-3.888-1.44-4.032-1.296-4.032-1.296-4.032-1.44-4.032-1.296-4.032-1.44-4.032-1.296-3.888-1.44-4.032-1.296-4.032-1.44-4.032-1.296-4.032-1.152-3.168-.288-1.008-.288-1.152-.288-1.008-.288-1.008-.144-1.008-.144-1.008-.144-1.008-.144-1.008-.144-.864v-1.008-.864-1.008-.864l.144-1.008v-.864l.288-.864.144-.864.144-.864.288-.864.288-.72.288-.864.288-.864.432-.72.432-.864.432-.72.432-.72.432-.864.576-.72.576-.576.576-.72.576-.576.576-.576.576-.576.72-.576.72-.576.576-.432.72-.576.864-.432.72-.288.72-.432.864-.288.864-.432.864-.288.864-.288.864-.144.864-.288 1.008-.144.864-.144 1.008-.144 1.008-.144h2.16l1.008-.144 1.152.144"/></clipPath><clipPath id="f"><path d="m824.112-112.896h-806.4v-369.36h806.4z"/></clipPath><clipPath id="g"><path d="m391.248-154.224h-32.4l14.976-141.12h20.448l-3.024 25.632h27.216l10.656-25.632h22.32zm19.152-95.616h-21.456l-8.352 71.28z"/></clipPath><clipPath id="h"><path d="m824.112-112.896h-806.4v-369.36h806.4z"/></clipPath><clipPath id="i"><path d="m317.952-217.008 14.112 62.784h-22.176l-12.672-61.488-16.272 61.488h-22.032l37.44-141.12h22.176l-11.52 43.344 3.456 12.96 36.432-56.304h22.752z"/></clipPath><clipPath id="j"><path d="m824.112-112.896h-806.4v-369.36h806.4z"/></clipPath><clipPath id="k"><path d="m242.928-154.224h-21.888l37.44-141.12h22.032z"/></clipPath><clipPath id="l"><path d="m824.112-112.896h-806.4v-369.36h806.4z"/></clipPath><clipPath id="m"><path d="m214.128-296.784h1.008l1.152.144 1.008.144 1.008.144 1.008.288 1.008.144.864.288 1.008.288.864.288.864.288.864.288.72.432.72.288.864.432.576.432.72.576.72.432.576.576.576.432.576.576.576.576.432.72.576.576.432.72.432.576.432.72.288.72.432.864.288.72.288.864.144.72.288.864.144.864.144.864.144 1.008.144.864.144 1.008v.864 1.008 1.008 1.152l-.144 1.008v1.152l-.144 1.008-.144 1.152-.144 1.152-.288 1.152-.288 1.152-.288 1.296-.288 1.152-.288 1.296-1.008 4.032-1.152 3.888-1.008 4.032-1.008 4.032-1.152 3.888-1.008 4.032-1.008 3.888-1.152 4.032-1.008 4.032-1.008 3.888-1.152 4.032-1.008 3.888-1.152 4.032-1.008 4.032-1.008 3.888-1.152 4.032-1.008 3.888-1.008 4.032-1.152 4.032-1.008 3.888-1.008 4.032-1.152 3.888-1.008 4.032-1.008 4.032-1.152 3.888-1.008 4.032-1.008 3.888h-21.024l1.152-4.032 1.008-4.032 1.008-4.032 1.152-4.032 1.008-4.032 1.152-4.032 1.008-4.032 1.152-4.032 1.008-4.032 1.152-4.032 1.008-4.176 1.152-4.032 1.008-4.032 1.152-4.032 1.008-4.032 1.008-4.032 1.152-4.032 1.008-4.032 1.152-4.032 1.008-4.032 1.152-4.032 1.008-4.032 1.152-4.176 1.008-4.032 1.152-4.032 1.008-4.032 1.008-4.032.288-.576.144-.576.144-.432v-.576l.144-.576.144-.432v-.432l.144-.576v-.432-.432l.144-.432v-.432-.432-.432-.288l-.144-.432v-.288-.432l-.144-.288v-.288l-.144-.288-.144-.288-.144-.288-.144-.288-.144-.288-.144-.288-.144-.144-.144-.288-.288-.144-.144-.288-.144-.144-.288-.144-.144-.288-.288-.144-.288-.144-.144-.144-.288-.144-.288-.144-.288-.144-.288-.144-.288-.144h-.288l-.288-.144-.288-.144h-.288l-.288-.144h-.72l-.288-.144h-3.744l-.432.144h-.72l-.288.144h-.432l-.288.144-.288.144h-.432l-.288.144-.288.144-.432.144-.288.144-.288.144-.288.144-.432.144-.288.144-.288.288-.288.144-.288.144-.288.288-.288.144-.288.288-.288.144-.288.288-.288.288-.288.288-.144.288-.288.288-.288.288-.288.288-.144.288-.288.432-.288.288-.144.432-.288.288-.288.432-.144.432-.288.432-.144.432-.144.432-.288.432-.144.576-.288.432-.144.432-.144.576-.144.576-.288.432-.144.576-.144.576-1.008 4.032-1.152 4.032-1.008 4.032-1.152 4.032-1.008 4.176-1.152 4.032-1.008 4.032-1.152 4.032-1.008 4.032-1.008 4.032-1.152 4.032-1.008 4.032-1.152 4.032-1.008 4.032-1.152 4.032-1.008 4.032-1.152 4.176-1.008 4.032-1.152 4.032-1.008 4.032-1.152 4.032-1.008 4.032-1.008 4.032-1.152 4.032-1.008 4.032-1.152 4.032-1.008 4.032h-22.032l1.152-3.888 1.008-4.032 1.008-3.888 1.152-4.032 1.008-4.032 1.008-3.888 1.008-4.032 1.152-3.888 1.008-4.032 1.008-4.032 1.152-3.888 1.008-4.032 1.008-3.888 1.152-4.032 1.008-4.032 1.008-3.888 1.008-4.032 1.152-3.888 1.008-4.032 1.008-4.032 1.152-3.888 1.008-4.032 1.008-3.888 1.152-4.032 1.008-4.032 1.008-3.888 1.008-4.032.432-1.296.288-1.152.432-1.296.432-1.152.432-1.152.432-1.152.432-1.152.432-1.008.576-1.152.432-1.008.576-1.152.432-1.008.576-1.008.576-.864.576-1.008.72-.864.576-1.008.576-.864.72-.864.72-.864.576-.72.72-.864.72-.72.72-.864.864-.72.72-.72.72-.576.864-.72.864-.576.864-.72.72-.576.864-.576 1.008-.432.864-.576.864-.432 1.008-.576.864-.432 1.008-.432 1.008-.288.864-.432 1.008-.288 1.008-.288 1.152-.288 1.008-.288 1.008-.288 1.152-.144 1.008-.288 1.152-.144 1.152-.144 1.152-.144h1.152l1.152-.144h4.752z"/></clipPath><clipPath id="n"><path d="m824.112-112.896h-806.4v-369.36h806.4z"/></clipPath><clipPath id="o"><path d="m127.584-275.472h-13.68l-.72 1.008-.72 2.736-.72 2.592-.72 2.736-.72 2.592-.72 2.736-.72 2.592-.576 2.736-.72 2.592-.72 2.736-.72 2.592-.72 2.736-.72 2.736-.72 2.592-.576 2.736-.72 2.592-.72 2.736h11.376l.864-.144h.864l.72-.144.864-.144.72-.144.864-.288.72-.144.72-.288.576-.288.72-.288.576-.288.576-.432.576-.432.576-.288.576-.432.432-.576.576-.432.432-.576.432-.72.576-.576.432-.72.432-.864.432-.72.432-.864.432-1.008.288-.864.432-1.008.432-1.152.288-1.008.432-1.152.288-1.152.288-.864.144-.72.288-.72.144-.864.144-.72.288-.72.144-.72.144-.864.288-.72.144-.72.288-.864.144-.72.144-.72.288-.72.144-.864.144-.72.288-.864.288-.864.144-1.008.144-.72.144-.864.144-.864v-.72l.144-.72v-.72-.576l-.144-.576v-.576l-.144-.576-.144-.432-.288-.576-.144-.288-.288-.432-.288-.432-.288-.288-.432-.288-.288-.288-.432-.288-.432-.288-.432-.144-.432-.288-.432-.144-.576-.144-.576-.144-.576-.144h-.576l-.576-.144m-21.456 63.504h-9.648l-.576 2.304-.72 2.592-.576 2.448-.72 2.592-.576 2.592-.72 2.448-.72 2.592-.576 2.592-.72 2.592-.576 2.448-.72 2.592-.72 2.592-.576 2.448-.72 2.592-.72 2.592h11.664l.72-.144h.72l.72-.144.72-.144.576-.144.72-.288.576-.144.576-.288.576-.288.576-.432.576-.288.576-.432.432-.432.432-.432.576-.576.432-.432.432-.576.432-.72.432-.576.432-.72.288-.72.432-.72.432-.864.288-.864.288-.864.432-1.008.288-.864.288-1.008.288-.864.144-.576.144-.576.144-.432.144-.576.144-.576v-.576l.144-.432.144-.576.144-.576.144-.432.144-.576.144-.576.144-.576.144-.432.144-.864.288-1.152.288-1.008.144-1.008.144-1.008v-.864-.864-.864-.864l-.144-.72-.144-.576-.144-.72-.144-.576-.288-.432-.288-.576-.432-.432-.432-.432-.432-.288-.432-.432-.432-.288-.576-.288-.576-.288-.576-.144-.576-.288-.576-.144-.72-.144-.72-.144h-.72l-.864-.144m26.496-83.232h2.88l1.44.144 1.296.144 1.296.288 1.296.144 1.152.288 1.152.288 1.152.288 1.008.432 1.008.288 1.008.432 1.008.576.864.432.864.576.864.576.72.576.72.576.72.72.576.72.72.72.432.864.576.72.432.864.432.864.432 1.008.288.864.288 1.008.288 1.008.144 1.008.288 1.008v1.152l.144 1.152v1.152 1.152 1.296l-.144 1.152-.144 1.296-.144 1.44-.288 1.296-.288 1.44-.288 1.296-.432 1.44-.144 1.008-.144.432-.144.576-.144.432-.144.576-.144.576-.144.432-.144.576-.144.432-.144.576-.144.576-.144.432-.144.576-.144.432-.144.576-.144.576v.432l-.144.576-.144.576-.144.432-.144.576-.144.432-.288.864-.288 1.008-.288 1.008-.288.864-.288 1.008-.288 1.008-.432.864-.288 1.008-.432.864-.288.864-.432.864-.432.864-.432.864-.432.864-.432.72-.432.864-.432.864-.432.72-.576.72-.432.72-.576.72-.432.72-.576.72-.576.72-.576.72-.576.576-.576.72-.576.576-.576.576-.72.576-.72.576-.576.576-.72.432-.72.576-.72.432-.864.432-.72.576-.72.432-.864.432-.864.288-.864.432-.864.288-.864.432-.864.288-.288.288.576.432.576.288.432.288.576.432.432.432.432.288.576.432.288.432.432.432.432.576.432.432.288.432.288.576.288.432.288.576.288.576.288.576.288.576.144.576.144.576.288.576.144.72.144.576v.72l.144.72v.72l.144.72v.72.72.72.864.72.864l-.144.864v.72l-.144.864-.144.864-.144 1.008-.144.864-.144.864-.288 1.008-.144.864-.288 1.008-.144.864-.144.144v.288l-.144.288v.144.288l-.144.144v.288l-.144.288v.144l-.144.288v.144l-.144.288v.144.288l-.144.288v.144l-.144.288v.144l-.144.288v.288l-.144.144v.432l-.432 1.44-.432 1.44-.432 1.44-.576 1.296-.432 1.296-.576 1.296-.576 1.296-.576 1.296-.576 1.152-.576 1.152-.72 1.152-.576 1.008-.72 1.152-.72 1.008-.72.864-.72 1.008-.864.864-.72 1.008-.864.72-.864.864-.864.864-.864.72-.864.72-1.008.576-.864.72-1.008.576-1.008.576-1.152.576-1.008.576-1.152.432-1.152.432-1.296.432-1.152.432-1.296.288-1.296.288-1.296.288-1.296.288-1.296.144-1.44.288-1.44.144h-1.44l-1.584.144h-36.144l1.44-5.904 1.728-6.336 1.728-6.336 1.728-6.48 1.584-6.336 1.728-6.336 1.728-6.48 1.728-6.336 1.584-6.48 1.728-6.336 1.728-6.336 1.728-6.48 1.728-6.336 1.584-6.48 1.728-6.336 1.728-6.336 1.728-6.48 1.584-6.336 1.728-6.48 1.728-6.336 1.728-6.336 1.728-6.48 1.584-1.008h33.12l1.44.144"/></clipPath><clipPath><path d="m14.112-48.24v-498.816h813.456v498.816z"/></clipPath><clipPath id="p"><path d="m451.296-295.344h-22.176l60.192-141.12h22.32z"/></clipPath><g clip-path="url(#a)" fill="none" transform="matrix(.95345838 0 0 -.95345838 -55.831779 -123.74095)"><path d="m655.1805-374.7801-4.572-50.0633-.5715-6.2579-.2857-3.1289-.1428-1.5646-.0358-.391-.0179-.1956-.005-.015h-.0101-.0202-.0405-.3239-5.1822-10.3635-5.1818-2.5907-1.2955-.3237-.1619-.0103l-.0006.0161.004.0419.009.0836.0173.1674.1379 1.3386 2.2076 21.4173 2.2083 21.4173.5521 5.3544.276 2.677.0173.1674.004.0386h-.0004-.0005-.003-.006-.012-.0948-.1901-.095-.0475-.0119-.006-.1158-.5001-8.0002-1-.1249-.0624-.0314-.008-.004l-.007-.0192-.0285-.0838-.455-1.3386-.9101-2.6772-3.6401-10.7086-7.2801-21.4173-3.6397-10.7088-1.82-5.3541-.1136-.3348-.0293-.0772h-.0386-.0772-.3089-.6179-1.2359-9.8854-9.8849-1.2356-.6179-.3088-.0772-.0388l.0008.0107.01.0281.019.0559.0382.1121.3045.8958 4.873 14.3332 9.7459 28.6665 19.492 57.333 9.746 28.6666 2.4364 7.1665 1.2183 3.5833.0762.2238.0184.0518h.0136.0272.1082.2166.4331 3.4652 27.7191 1.7325.4352l.4606-.002.9082-.0132.8912-.0262.8739-.0388.8569-.0518.8395-.0643.8226-.0772.8054-.0902.788-.1028.7711-.1156.7539-.1286.7366-.1412.7195-.154.7025-.1668.6852-.1795.6681-.1924.6509-.2054.6338-.218.6165-.2308.5995-.2432.5822-.2564.5652-.2692.5478-.282.5309-.2948.5137-.3076.4963-.3202.4794-.3332.4622-.346.4449-.3586.4279-.3716.4107-.3844.3935-.397.3765-.41.3592-.4226.3421-.4354.3248-.4484.3076-.461.2907-.4738.2733-.4866.2527-.4912.2178-.4566.2054-.4645.1932-.4724.1807-.4806.1684-.4883.1561-.4967.1437-.5045.1313-.5126.1191-.5205.1065-.5287.0942-.5366.0821-.5446.0696-.5528.0572-.5607.0448-.5686.0326-.5768.0201-.5847.008-.5927-.005-.6009-.017-.6087-.0293-.617-.0415-.6249-.0539-.6328-.0664-.6408-.0787-.6489-.091-.6571-.1033-.6648-.1158-.673-.1282-.6811-.1404-.6891-.1529-.697-.165-.705-.1776-.7132-.1899-.7212-.2023-.7291-.2145-.7371-.2269-.7454-.2393-.753-.2518-.7615-.063-.1865-.0435-.1278-.0868-.2557-.3476-1.0226-.6949-2.0454-1.39-4.0904-2.7798-8.1807-1.3899-4.0905-.0867-.2556-.0227-.0665-.0334-.0978-.0671-.1953-.2762-.7763-.587-1.5324-.6335-1.5044-.6797-1.4768-.7261-1.4494-.7725-1.4214-.819-1.3941-.8654-1.3663-.9117-1.3386-.9581-1.3108-1.0046-1.2834-1.051-1.2557-1.0974-1.2281-1.1436-1.2003-1.1903-1.1728-1.2365-1.145-1.283-1.1175-1.3295-1.0898-1.3756-1.0622-1.4222-1.0345"/><path d="m658.0065-329.0689.1813.5545.1616.5392.1413.5236.1216.5083.1017.4928.0818.4777.0617.4622.0421.4468.0219.4314.002.4162-.018.4006-.0376.3854-.0578.3699-.0776.3547-.0976.3392-.1173.3239-.1375.3083-.1573.2931-.1771.2779-.1972.2622-.217.2471-.2368.2316-.257.2162-.2768.2009-.2967.1857-.3165.17-.3365.1548-.3565.1394-.3762.1242-.3964.1086-.416.0933-.4362.0779-.456.0627-.4759.0471-.4959.0318-.5157.0165-.2653.002h-.0538-.0356-.0714-.2861-.5717-2.2872-4.5743-2.2872-.2861-.0357-.004l-.006-.0151-.0121-.0353-.024-.0708-.0962-.2828-.1922-.5655-.7694-2.262-1.5385-4.5243-6.1542-18.097-3.0771-9.0484-1.5386-4.5241-.3846-1.1311-.1924-.5655-.0481-.1414-.024-.0708-.009-.0302h.009.0716.5719 4.5742 4.5735.5718.0713l.0551.0001.1044.001.209.006.4195.0254.4209.0445.4226.063.4239.0818.4257.1007.4271.1195.4288.138.4302.1571.4317.1759.4333.1946.435.2135.4364.2322.4379.2511.4394.2698.4411.2888.4426.3076.4443.3262.4431.3436.43.3546.4154.3644.4009.3743.3863.3842.3718.3941.3571.4042.3423.414.328.424.3132.4338.2986.4438.2842.4536.2694.4637.255.4734.2403.4835.2257.4934.2112.5033.1965.513.0929.2605.0227.0653.0111.0328.006.019.0117.0341.0927.2735.7428 2.1873 5.9436 17.4981"/><path d="m4550 2603-2 17-1 17-2 17-1 18-2 17-2 17-1 17-2 17-1 18-2 17-1 17-2 17-2 18-1 17-2 17-1 17-2 17-1 18-2 17-2 17-1 17-2 18-1 17-2 17-2 15h-7-8-7-7-7-7-7-7-7-8-7-7-7-7-7-7-8-7-7-7-7-7-7-7l-5-5 2-15 1-14 2-15 1-15 2-15 1-14 2-15 1-15 2-15 1-14 2-15 1-15 2-15 1-14 2-15 1-15 2-14 1-15 2-15 1-15 2-14 2-15 1-15 2-15v-8h-1-1-1-2-2-3-3-3-2-3-3-3-2-3-3-3-2-3-3-3-2-3-3-3-2-3-3-3l-4 12-5 14-5 15-5 15-5 15-5 14-5 15-5 15-5 15-5 14-5 15-5 15-5 15-5 14-5 15-5 15-5 15-5 14-5 15-5 15-5 14-5 15-5 15-5 15-5 14-7 2h-7-7-6-7-7-7-7-6-7-7-7-7-6-7-7-7-7-6-7-7-7-7-6l-6-4 14-39 13-39 14-40 13-39 13-40 14-39 13-40 14-39 13-40 13-39 14-39 13-40 14-39 13-40 14-39 13-40 13-39 14-40 13-39 14-39 13-40 13-39 14-40 13-39 13-31h9 10 9 10 9 10 9 10 10 9 10 9 10 9 10 9 10 9 10 9 10 10 9 10 9l10 1h10l9 1 9 1 9 1 8 1 9 2 7 1 8 2 7 3 7 2 7 3 6 2 6 4 6 3 5 3 5 4 5 4 5 4 4 5 4 5 4 4 3 6 3 5 3 5 2 5 2 5 2 6 1 5 2 6 1 6 1 6 1 6v6l1 6v7 7l-1 6v7l-1 7-1 8-1 7-2 8-1 7-2 8-2 8-2 8-3 8-3 8-2 7-2 6-2 5-1 6-2 5-2 6-2 6-2 5-2 6-2 6-2 5-2 6-2 5-2 6-2 6-1 5-2 6-2 6-2 5-2 6-2 5-2 6-2 6-2 5-2 6-3 8-3 9-3 8-4 8-4 8-4 8-4 8-4 8-5 7-5 8-5 7-5 7-5 8-6 7-6 6-6 7-6 7-6 6-7 7-7 6-7 6-7 6-8 6-7 6z"/><path d="m4569 2285 3-8 2-8 1-8 1-7v-6l-1-6-2-5-2-5-3-4-4-4-4-3-5-2-6-2-6-2-7-1h-8-6-4-5-4-4-5-4-5-4-5-4-5-4-5-4-4l-6 7-6 18-6 18-6 17-6 18-6 18-6 17-6 18-6 17-6 18-6 18-6 17-6 18-6 18-6 17-6 18-4 15h4 5 4 5 4 5 4 5 4 4 5 4 5 4 5 4 4 3l3-1h4l3-1 3-1 4-1 3-1 3-1 4-2 3-2 3-1 4-3 3-2 4-2 3-3 4-2 3-3 3-3 3-3 3-3 3-3 3-3 2-4 3-3 2-3 2-4 2-4 2-3 2-4 2-4 1-4 2-5 3-9 3-8 3-9 3-8 3-9 3-9 2-8 3-9 3-8 3-9 3-8 3-9 3-8 3-9 3-8z"/></g><g clip-path="url(#b)" transform="matrix(.95345838 0 0 -.95345838 -55.831779 -123.74095)"><path d="m576.72-294.912h107.856v-141.84h-107.856z"/></g><g clip-path="url(#c)" transform="matrix(.95345838 0 0 -.95345838 -55.831779 -123.74095)"><path d="m489.024-294.912h119.52v-141.84h-119.52z"/></g><g clip-path="url(#d)" fill="none" transform="matrix(.95345838 0 0 -.95345838 -55.831779 -123.74095)"><path d="m695.6834-436.3964-.7828.007-.7711.0225-.7595.0372-.7476.0522-.736.0673-.7244.082-.7127.097-.701.1119-.6892.1269-.6777.1417-.666.1567-.6541.1717-.6426.1865-.6309.2014-.619.2164-.6075.2314-.5958.2461-.5841.2612-.5723.276-.5607.2911-.5491.3059-.5372.3207-.5256.336-.5139.3506-.5022.3656-.4906.3805-.4789.3955-.467.4103-.4556.4254-.4437.4402-.4319.455-.4205.4701-.4086.4851-.397.4999-.3852.5148-.3737.5298-.3613.5438-.3453.5518-.3281.5584-.3109.5645-.2938.5712-.2768.5776-.2595.5839-.2424.5904-.2254.5969-.2081.6032-.191.6098-.1738.6161-.1569.6226-.1394.6289-.1226.6354-.1053.6419-.0882.6482-.071.6548-.0541.6611-.0367.6676-.0198.6741-.003.6804.0145.6869.0319.6932.0486.6997.0662.7063.083.7126.1002.7189.1174.7256.1344.7319.1516.7384.1688.7447.1858.7511.203.7576.2202.7641.2372.7706.2542.7769.033.0975.004.0123.0138.0409.0312.0911.0621.1827.2483.7308.4968 1.4614 1.9872 5.8452 3.9741 11.6905 15.8961 46.7622 7.9478 23.381 3.9739 11.6905.9934 2.9225.4967 1.4614.1243.3652.062.1827.0155.0457.008.0227.006.01h.021.1662 1.3308 10.6459 10.6454 1.3306.1664.0208l-.0004-.01-.008-.0229-.0155-.0455-.0621-.1821-.1237-.3645-.4955-1.4575-.9913-2.9147-3.9642-11.6603-7.9287-23.3203-15.8576-46.6403-3.9642-11.6603-1.9821-5.8301-.4955-1.4575-.2479-.7286-.0618-.1823-.0311-.091-.0134-.0398-.001-.004-.0111-.033-.0857-.2624-.1551-.5169-.1331-.5063-.1109-.4962-.089-.4856-.067-.4753-.0449-.4647-.0229-.4544-.0008-.444.0213-.4334.0435-.4232.0653-.4127.0875-.4023.1096-.3917.1315-.3813.1538-.371.1757-.3606.1978-.35.2195-.3393.2335-.3231.245-.3045.2566-.2862.2682-.2677.2797-.2492.2911-.2308.3027-.2123.3142-.1938.3258-.1755.3373-.1569.3489-.1385.3604-.12.3719-.1016.3835-.0831.3948-.0645.4065-.0462.4182-.0277.4296-.009.4328.009.4339.0277.4348.0464.4358.0649.4368.0832.4379.102.4389.1205.4396.139.4409.1575.4418.1761.4429.1945.4438.2132.4449.2317.4457.2502.4468.2688.4478.2873.4488.3058.4498.3245.4466.3407.4325.3513.4176.3617.4026.3716.3877.3818.3731.3922.3581.4022.3432.4126.3286.4228.3134.4326.2989.4432.2837.453.2692.4636.2541.4736.2393.4837.2246.4939.2096.5041.1947.5141.0918.2611.0112.0328.002.004.0134.0398.031.091.0619.1823.2478.7286.4955 1.4575 1.9821 5.8301 3.9642 11.6603 15.8576 46.6403 7.9288 23.3203 3.9642 11.6603.991 2.9147.4955 1.4575.124.3645.062.1821.0153.0455.008.0229.006.01h.0208.1664 1.3306 10.6451 10.6452 1.3306.1664.0208l-.0004-.01-.008-.0227-.0155-.0457-.062-.1827-.1242-.3652-.4968-1.4614-.9934-2.9225-3.9739-11.6905-7.9482-23.381-15.8961-46.7622-3.9739-11.6905-1.987-5.8452-.4967-1.4614-.2484-.7308-.0621-.1827-.031-.0911-.014-.0409-.004-.0125-.0338-.0987-.2771-.7864-.29-.7797-.3029-.7726-.3157-.7659-.3286-.7591-.3413-.7523-.3542-.7455-.3671-.7386-.3797-.7317-.3928-.725-.4055-.7179-.4183-.7114-.4314-.7044-.4441-.6974-.4567-.6909-.4698-.6838-.4827-.6773-.4953-.6702-.5083-.6633-.521-.6567-.5341-.6497-.5467-.6429-.5595-.6362-.5726-.6291-.5853-.6226-.5981-.6156-.6109-.6087-.6239-.6018-.6366-.5953-.6495-.5882-.6623-.5814-.6753-.5745-.6879-.5679-.7009-.5608-.7137-.5541-1.4641-1.0865-.7397-.525-.7407-.5103-.742-.4955-.7428-.4806-.7442-.466-.7451-.4511-.7465-.4362-.7472-.4216-.7487-.4067-.7496-.392-.7507-.3772-.7517-.3623-.7531-.3477-.7541-.3327-.755-.318-.7564-.3034-.7573-.2883-.7585-.2737-.7595-.2587-.7608-.244-.7618-.2294-.7628-.2143-.7642-.1998-.7651-.1848-.7662-.1701-.7673-.1554-.7686-.1404-.7695-.1259-.7706-.1109-.7719-.096-.7728-.0814-.774-.0666-.7752-.0518-.7762-.037-.7773-.0221-.7785-.007"/><path d="m4831 3031-7-1h-8-7l-7-1-7-1-6-1-7-1-6-2-6-1-6-2-6-2-6-3-6-2-5-3-5-2-6-3-5-4-4-3-5-4-5-4-4-4-4-4-4-4-4-5-4-4-4-5-3-6-3-5-3-5-3-6-3-5-2-6-2-6-2-5-2-6-1-6-1-6-2-6v-6l-1-7v-6-7-6-7l1-6 1-7 1-7 1-7 1-7 2-7 2-7 2-8 2-7 8-22 9-28 10-28 9-28 10-28 9-27 10-28 9-28 10-28 9-28 9-28 10-28 9-27 10-28 9-28 10-28 9-28 10-28 9-28 10-27 9-28 10-28 9-28 10-28 9-28 10-28 9-26h6 6 7 6 6 7 6 6 7 6 7 6 6 7 6 6 7 6 6 7 6 6 7 6 6 7l-1 12-9 28-10 28-9 28-10 28-9 27-9 28-10 28-9 28-10 27-9 28-10 28-9 28-10 28-9 27-9 28-10 28-9 28-10 28-9 27-10 28-9 28-10 28-9 27-10 28-9 28-9 28-3 8-1 2-1 3v2l-1 2v3l-1 2v2 3 2 2 2 2 2 2 2 2l1 2v2l1 2v2l1 2 1 1 1 2 1 2 1 1 1 2 1 2 1 1 1 2 1 1 1 1 2 2 1 1 1 1 2 1 1 1 2 1 1 1 2 1h1l2 1 2 1h1l2 1h2l2 1h2l1 1h2 2 2 2 2 2 3 2 2l2-1h2l2-1h2l2-1h2l2-1 2-1h2l3-1 2-1 2-1 2-1 2-1 2-1 2-2 2-1 3-1 2-2 2-1 2-2 2-1 2-2 2-1 2-2 2-2 2-2 2-1 2-2 2-2 2-2 1-2 2-2 1-2 2-2 2-2 1-2 1-2 2-2 1-2 1-3 1-2 2-2 1-3 1-2 1-2 1-3 1-2 2-8 10-28 9-28 10-28 9-27 10-28 9-28 10-28 9-27 9-28 10-28 9-28 10-28 9-27 10-28 9-28 10-28 9-28 9-27 10-28 9-28 10-28 9-27 10-28 9-28 10-28 9-28 8-12h6 6 7 6 6 7 6 6 7 6 6 7 6 7 6 6 7 6 6 7 6 6 7 6 6 7l-9 26-9 28-10 28-9 28-10 28-9 28-10 28-9 27-9 28-10 28-9 28-10 28-9 28-10 28-9 27-10 28-9 28-10 28-9 28-10 28-9 28-10 27-9 28-10 28-9 28-9 28-8 22-3 7-3 8-3 7-3 7-3 7-4 7-3 7-4 7-4 7-5 7-4 6-4 7-5 6-5 6-5 7-5 6-6 6-5 6-6 5-6 6-6 6-6 6-6 5-7 5-7 6-7 5-7 5-7 5-7 5-7 4-7 5-7 4-7 4-7 4-8 3-7 4-7 3-7 3-7 3-8 2-7 3-7 2-7 2-8 2-7 1-7 2-8 1-7 1-7 1-8 1h-7-7z"/></g><g clip-path="url(#e)" transform="matrix(.95345838 0 0 -.95345838 -55.831779 -123.74095)"><path d="m670.608-294.912h107.856v-141.84h-107.856z"/></g><g clip-path="url(#f)" fill="none" transform="matrix(.95345838 0 0 -.95345838 -55.831779 -123.74095)"><path d="m451.4151-295.2745h-22.3454"/><path d="m429.0697-295.2745-10.6769 25.5824"/><path d="m418.3928-269.6921h-27.1808"/><path d="m391.212-269.6921 3.0178-25.5824"/><path d="m394.2298-295.2745h-20.3347"/><path d="m373.8951-295.2745-15.0983 141.1143"/><path d="m358.7968-154.1602h32.4152"/><path d="m391.212-154.1602 60.2031-141.1143"/><path d="m388.9943-249.8872h21.3533"/><path d="m410.3476-249.8872-29.8117 71.2795"/><path d="m380.5359-178.6077 8.4584-71.2795"/><path d="m3135 2051h-155l-74-178h-189l21 178h-142l-104-980h225z"/><path d="m2701 1735h149l-207-495z"/></g><g clip-path="url(#g)" transform="matrix(.95345838 0 0 -.95345838 -55.831779 -123.74095)"><path d="m358.56-153.936h93.168v-141.696h-93.168z"/></g><g clip-path="url(#h)" fill="none" transform="matrix(.95345838 0 0 -.95345838 -55.831779 -123.74095)"><path d="m310.4819-239.0301-3.4171-12.9067"/><path d="m307.0648-251.9368 11.4764-43.3377"/><path d="m318.5412-295.2745h-22.1524"/><path d="m296.3888-295.2745-37.4577 141.1143"/><path d="m258.9311-154.1602h21.9462"/><path d="m280.8773-154.1602 16.3108-61.4799"/><path d="m297.1881-215.6401 12.6875 61.4799"/><path d="m309.8756-154.1602h22.1524"/><path d="m332.028-154.1602-14.0929-62.8984"/><path d="m317.9351-217.0586 51.7438-78.2159"/><path d="m369.6789-295.2745h-22.7456"/><path d="m346.9333-295.2745-36.4514 56.2444"/><path d="m2156 1660-24 90 80 301h-154l-260-980h153l113 427 88-427h154l-98 436 359 544h-158z"/></g><g clip-path="url(#i)" transform="matrix(.95345838 0 0 -.95345838 -55.831779 -123.74095)"><path d="m258.624-153.936h111.312v-141.696h-111.312z"/></g><g clip-path="url(#j)" fill="none" transform="matrix(.95345838 0 0 -.95345838 -55.831779 -123.74095)"><path d="m220.9706-154.1602h21.9464"/><path d="m242.917-154.1602 37.6637-141.1143"/><path d="m280.5807-295.2745h-22.1523"/><path d="m258.4284-295.2745-37.4578 141.1143"/><path d="m1535 1071h152l261 980h-153z"/></g><g clip-path="url(#k)" transform="matrix(.95345838 0 0 -.95345838 -55.831779 -123.74095)"><path d="m220.752-153.936h60.048v-141.696h-60.048z"/></g><g clip-path="url(#l)" fill="none" transform="matrix(.95345838 0 0 -.95345838 -55.831779 -123.74095)"><path d="m161.6712-154.1602 25.3737-95.5505 3.1714-11.944.3966-1.493.0494-.1865.006-.0233.002-.006.002-.007.004-.013.0152-.0526.0302-.1045.123-.4137.2531-.8068.2628-.779.2723-.7512.2821-.7234.2919-.6955.3016-.6677.3113-.64.321-.6121.3306-.5846.3404-.5564.3501-.5289.3597-.5009.3697-.473.3791-.4455.3891-.4176.3987-.3896.4085-.3621.4181-.335.4267-.3153.4352-.2971.4436-.2789.4518-.2609.4603-.2426.4687-.2244.4771-.2061.4855-.1882.4939-.1701.5024-.1516.5106-.1336.5192-.1154.5275-.0974.5359-.0791.5444-.0609.5527-.0429.5611-.0246.5694-.006.5617.0116.545.0299.5281.0479.5112.0661.4944.0844.4774.1024.4607.1206.4437.1389.4271.1569.41.1751.3933.1934.3762.2114.3596.2296.3427.2479.3258.2659.309.2841.292.3023.2753.3204.2544.3423.2267.3699.199.3978.1715.4255.1435.4532.116.4812.0882.5089.0605.5366.0328.5646.005.5923-.0227.6201-.0504.6479-.0781.6757-.1059.7034-.1339.7314-.1613.7591-.1893.787-.2168.8146-.0586.2081-.0301.1047-.008.0262-.004.0132-.004.0122-.0124.0467-.0991.3732-.7929 2.9859-6.3431 23.8878-12.6867 47.7751-6.3435 23.8878-1.5859 5.9719-.793 2.986-.1983.7464-.0991.3732-.0248.0935-.0124.0465-.005.02h.004.0359.2863 2.2902 18.3226l25.0241-93.9146 3.1281-11.7392.3912-1.4673.0488-.1835.009-.0324.004-.0147.008-.0293.0314-.1168.0621-.2329.2385-.9247.2227-.9129.2067-.9011.1911-.889.1751-.8772.1594-.8652.1435-.8535.1278-.8416.1121-.8294.096-.8179.0805-.8058.0644-.794.0489-.782.0328-.7702.0172-.7583.001-.7465-.0144-.7344-.0304-.7227-.046-.7108-.062-.6987-.0776-.687-.0937-.6751-.1094-.6631-.1251-.6514-.141-.6395-.1567-.6274-.1726-.6158-.1883-.6037-.2042-.5917-.2201-.5801-.2357-.5681-.2517-.5562-.2675-.5444-.2831-.5324-.2991-.5205-.3148-.5087-.3306-.4961-.3462-.4824-.3617-.4685-.377-.455-.3928-.4412-.408-.4277-.4238-.4139-.4391-.4001-.4546-.3865-.4701-.3727-.4856-.3592-.5012-.3454-.5167-.3317-.5321-.3179-.5477-.3043-.5632-.2907-.5786-.2769-.5942-.2632-.6096-.2494-.6253-.2359-.6405-.2222-.6562-.2083-.6718-.1947-.6871-.1812-.7027-.1671-.7181-.1536-.7337-.1401-.7492-.1262-.7647-.1125-.7803-.0989-.7955-.0852-.8113-.0713-.8268-.0578-.8421-.0441-.8578-.0302-.8731-.0167-.8877-.003-.8848.0109-.8766.0244-.8683.038-.8599.052-.8518.0655-.8437.0794-.8351.0929-.827.1066-.8188.1203-.8103.1342-.8023.1478-.7938.1613-.7857.1752-.7775.1889-.769.2024-.7608.2163-.7527.23-.7444.2436-.736.2573-.7279.2712-.7195.2847-.7114.2983-.7028.3122-.6949.3258-.6864.3394-.6782.3534-.6701.3669-.6617.3806-.6534.3943-.6452.408-.637.4216-.6285.4354-.6205.4492-.612.4628-.604.4765-.5956.4901-.5872.5035-.578.5155-.5688.5273-.5597.5393-.5506.551-.5413.563-.532.5749-.5229.5869-.5137.5987-.5047.6105-.4953.6224-.486.6344-.4771.6462-.4678.658-.4585.6701-.4494.6817-.4402.6939-.431.7056-.4218.7176-.4127.7294-.4034.7413-.3943.7532-.385.7649-.3758.7772-.3668.7887-.3574.8008-.3483.8126-.339.8245-.3299.8365-.3208.8483-.3115.8603-.3024.872-.2932.884-.2839.8958-.2748.9078-.2656.9197-.1293.4643-.0638.2331-.0159.0586-.008.0291-.005.0192-.0122.0458-.097.3669-.7764 2.9348-6.2112 23.4783-12.4216 46.9571-6.2111 23.4789-1.5529 5.8697-.7763 2.935-.1942.7337-.0969.3669-.0243.0915-.0122.046-.004.0196h.005.0374.3001 2.4006 19.2029"/><path d="m1123 1071 7 28 8 28 7 28 8 28 7 28 7 28 8 28 7 28 8 28 7 28 8 29 7 28 8 28 7 28 8 28 7 28 8 28 7 28 7 28 8 28 7 28 8 28 7 29 8 28 7 28 8 28 7 28 1 4 1 4 2 3 1 4 1 4 1 3 2 3 1 4 2 3 1 3 1 3 2 3 1 3 2 3 2 2 1 3 2 2 2 3 1 2 2 2 2 2 2 2 1 2 2 2 2 2 2 2 2 1 2 2 2 1 2 2 2 1 2 1 2 2 2 1 3 1 2 1 2 1 2 1 3 1 2 1 2 1h3l2 1 2 1h3l2 1h3 2l3 1h2 3 3 2 3 3 2 3 2 3l2-1h2 3l2-1h2l2-1 2-1h2l2-1 2-1 2-1 2-1 2-1 1-1 2-1 2-1 1-2 2-1 1-1 1-2 2-1 1-2 1-1 1-2 1-2 1-2 1-2 1-2 1-2v-2l1-2v-3-2l1-3v-2-3-3-3l-1-3v-3-3l-1-4v-3l-1-3-1-4v-4l-1-3-1-4-2-4-7-28-7-28-8-28-7-28-8-29-7-28-8-28-7-28-8-28-7-28-8-28-7-28-7-28-8-28-7-28-8-28-7-29-8-28-7-28-8-28-7-28-8-28-7-28-8-28-7-28-7-28-8-28h5 6 5 6 5 5 6 5 6 5 5 6 5 6 5 5 6 5 5 6 5 6 5 5 6 5 6l7 27 7 28 8 27 7 28 7 28 8 27 7 28 7 27 8 28 7 28 7 27 8 28 7 27 7 28 8 28 7 27 8 28 7 27 7 28 8 28 7 27 7 28 8 27 7 28 7 28 8 27 7 28 2 9 2 8 2 9 2 8 2 8 1 8 1 8 1 7v8l1 7v8 7 7 6l-1 7-1 6-1 7-1 6-1 6-2 6-1 5-2 6-2 5-3 6-2 5-3 5-3 4-3 5-4 4-3 5-4 4-4 4-4 3-4 4-5 3-5 4-4 3-6 3-5 2-5 3-6 2-6 2-6 2-7 2-6 2-7 1-7 2-7 1-7 1-8 1h-7l-8 1h-8-9-8-8l-8-1h-8l-8-1-8-1-8-1-7-2-8-1-7-2-7-2-8-2-7-2-7-2-6-3-7-2-7-3-6-3-7-4-6-3-6-4-7-3-6-4-5-4-6-5-6-4-6-5-5-4-5-5-6-5-5-6-5-5-5-6-4-5-5-6-5-6-4-6-4-7-5-6-4-7-4-6-4-7-3-7-4-8-3-7-4-8-3-7-3-8-3-8-3-8-3-8-3-9-2-8-3-9-7-28-7-27-7-28-8-28-7-27-7-28-8-27-7-28-7-28-8-27-7-28-7-27-7-28-8-28-7-27-7-28-8-27-7-28-7-28-8-27-7-28-7-27-7-28-8-28-7-27-7-28-8-27h6 6 5 6 6 5 6 5 6 6 5 6 6 5 6 6 5 6 6 5 6 5 6 6 5 6z"/></g><g clip-path="url(#m)" transform="matrix(.95345838 0 0 -.95345838 -55.831779 -123.74095)"><path d="m139.392-153.936h97.056v-143.28h-97.056z"/></g><g clip-path="url(#n)" fill="none" transform="matrix(.95345838 0 0 -.95345838 -55.831779 -123.74095)"><path d="m92.4556-154.1602 1.7393-.0208 1.7011-.0626 1.6624-.1041 1.6243-.1461 1.5857-.1875 1.5473-.2295 1.5089-.2709 1.4704-.3128 1.4319-.3544 1.3937-.3962 1.3551-.4377 1.3166-.4796 1.2785-.5212 1.2397-.5628 1.2015-.6047 1.1631-.6462 1.1244-.6879 1.0863-.7297 1.0477-.7713 1.0097-.8132.9792-.8556.9511-.8984.9231-.941.8953-.9837.8671-1.0263.8392-1.069.8113-1.1119.7831-1.1544.7552-1.1972.7273-1.2397.6992-1.2825.6712-1.3252.6431-1.3679.6154-1.4105.5871-1.4535.5593-1.4958.5312-1.5386.5033-1.5814.4751-1.6241.1145-.4127.0566-.2073.005-.0175.001-.004.002-.008.004-.0161.0357-.1284.571-2.0538.5707-2.0531.1428-.5132.0714-.2568.004-.0159.006-.0223.009-.0347.0356-.1381.0701-.2756.1355-.5473.2545-1.0797.2313-1.0601.2085-1.0403.1856-1.0205.1628-1.0009.1398-.981.1169-.9614.0941-.9416.0712-.9218.0485-.902.0254-.8823.002-.8626-.0202-.8427-.0432-.8231-.066-.8033-.0888-.7833-.1117-.7638-.1346-.7439-.1577-.7244-.1819-.7052-.2069-.6864-.2318-.6677-.2568-.6488-.2816-.6299-.3066-.6111-.3315-.5921-.3564-.5735-.3815-.5547-.4063-.5358-.4313-.5169-.4562-.4982-.4812-.4795-.5062-.4604-.5312-.4418-.556-.423-.5809-.4041-.606-.3852-.6309-.3666-.1616-.0888-.0814-.0438-.0408-.0219-.0103-.005.002-.005.032-.0109.5083-.1766 1.0002-.3703.9784-.3923.9565-.4149.9347-.4371.9128-.4595.8912-.4817.8693-.5041.8475-.5263.8256-.5487.8039-.571.782-.5934.7602-.6156.7384-.6379.7164-.6604.6947-.6827.673-.7047.6511-.7273.6291-.7496.6074-.7719.5885-.7927.5737-.8106.5591-.8291.5444-.8472.53-.8654.5153-.8836.501-.9018.4862-.9199.4717-.9383.4571-.9563.4426-.9746.4278-.9926.4135-1.011.3989-1.0291.3842-1.0472.3699-1.0654.3551-1.0835.3406-1.1018.326-1.12.1577-.5669.0773-.2851.0192-.0714.01-.0357.005-.0196.0192-.0727.3062-1.1644.6129-2.3285 1.2257-4.6568.6127-2.3285.1532-.582.0766-.2911.005-.0182.0119-.0441.0279-.1033.0553-.2062.108-.4104.2056-.8134.192-.8035.178-.7934.1645-.7835.1505-.7735.1369-.7635.123-.7535.1094-.7434.0956-.7335.0816-.7236.0681-.7135.0543-.7034.0405-.6936.0266-.6834.013-.6736-.0008-.6635-.0145-.6535-.0283-.6437-.0421-.6335-.0559-.6237-.0696-.6134-.0834-.6038-.0972-.5934-.1109-.5838-.1247-.5735-.1385-.5638-.1522-.5535-.166-.5438-.1798-.5336-.1934-.5236-.2073-.5138-.2211-.5036-.2349-.4938-.2486-.4837-.2624-.4738-.276-.4637-.2899-.4538-.3038-.4438-.3174-.4336-.3309-.4226-.3445-.4116-.358-.4007-.3714-.3896-.3851-.3786-.3986-.3675-.4119-.3565-.4255-.3456-.4391-.3345-.4527-.3233-.466-.3125-.4799-.3016-.493-.2903-.5067-.2795-.5202-.2682-.5337-.2574-.5471-.2463-.5607-.2352-.5743-.2244-.5878-.2131-.6012-.2023-.6148-.1913-.6284-.1801-.6418-.1691-.6553-.1583-.6689-.147-.6825-.1362-.6959-.1251-.7094-.114-.7228-.103-.7364-.0921-.75-.0809-.7636-.07-.7769-.0589-.7905-.048-.8041-.0368-.8175-.0258-.8312-.0149-.8497-.004h-1.7687-3.5372-14.1487-14.1481-.8842-.1106-.0553-.0275-.007l-.0072.0128-.0147.056-.2378.8959-.4755 1.7914-1.9022 7.166-3.8044 14.3318-7.6086 28.664-15.2171 57.3276-7.6086 28.6639-.4756 1.7916-.0595.2238-.0297.1121-.0149.0559-.0041.0215h.0066.1053.211.8437 1.6875 3.3748 26.9982"/><path d="m86.6139-173.9663 9.8649-37.9604h8.6644l.7659.0128.7377.0386.7093.064.6809.0898.6528.1154.6243.1412.5962.1666.5679.1923.5393.218.5112.2436.483.2692.4546.2948.4263.3204.3979.3462.3699.3716.3413.3972.3082.4311.2705.4731.2326.5145.1949.5564.1571.5981.1195.6398.0816.6816.0436.7234.006.7651-.0318.8068-.0694.8487-.1072.8904-.1451.9321-.1827.9739-.2205 1.0157-.2584 1.0574-2.0115 7.9939-.2824.9583-.2925.9247-.3025.891-.3129.8572-.3231.8235-.333.7897-.3434.7562-.3536.7225-.3636.6887-.374.6551-.384.6212-.3943.5876-.4045.554-.4147.5201-.4247.4864-.435.4527-.449.4224-.4672.3952-.4853.368-.5034.3405-.5215.3134-.5398.2861-.5578.2589-.576.2316-.594.2042-.6123.1771-.6303.1499-.6484.1226-.6667.0954-.6847.0681-.7028.0409-.7209.0135h-10.6771"/><path d="m101.9193-231.7318 11.4761-43.7367h12.6878l.6908.0119.6643.0358.6377.0596.6107.0834.5841.107.5576.1311.5309.1548.504.1786.4775.2025.4507.2263.4242.2502.3972.2741.3708.2979.3439.3215.3172.3454.2906.3695.2599.4003.2251.4385.1907.4769.1559.5149.1212.5533.0867.5914.052.6297.0172.6678-.0172.7061-.052.7444-.0867.7825-.1212.8208-.1559.859-.1907.8973-.2251.9356-.2599.9738-3.223 12.404-.3584 1.2213-.3694 1.1718-.3804 1.1227-.3913 1.0735-.4023 1.0242-.4133.9749-.4239.9257-.435.8765-.4461.8271-.4567.7779-.4678.7287-.4789.6794-.4895.6301-.5006.5808-.5116.5316-.5223.4824-.5413.4435-.568.4147-.5949.3863-.6217.3576-.6488.329-.6753.3004-.7024.2719-.7291.2432-.756.2145-.7829.1862-.8097.1573-.8367.1288-.8634.1-.8904.0716-.9172.0431-.9441.0141z"/><path d="m642 1071h11 10l11 1h10l10 1 10 2 9 1 9 2 9 2 9 2 9 2 8 3 9 3 8 3 8 3 7 4 8 4 7 4 7 4 6 5 7 4 6 5 6 5 6 6 6 6 6 5 5 7 6 6 5 7 5 6 5 7 5 8 4 7 5 8 4 8 4 8 4 9 4 9 4 9 3 9 4 9 3 10 3 10 3 10v3l1 1v2l1 2v1l1 2v1l1 2v2 1l1 2v1l1 2v1l1 2v2l1 1v2 1l1 2v2l1 1 1 6 2 7 1 6 2 7 1 6 1 6 1 7 1 6 1 6v5l1 6v6 5 6 5 5 5l-1 5v5l-1 5v5l-1 4-1 5-2 4-1 4-1 4-2 4-2 4-2 4-2 4-2 3-2 4-2 3-3 3-3 4-3 3-2 3-4 3-3 2-3 3-4 3-3 2-4 2-4 3 2 2 6 2 6 3 6 2 6 3 6 2 6 3 5 3 5 4 6 3 5 3 5 4 5 3 4 4 5 4 5 4 4 4 4 4 4 5 4 4 4 5 4 5 4 5 3 5 4 5 3 5 4 5 3 5 3 6 3 6 3 5 3 6 3 6 3 6 3 6 2 6 3 6 2 7 3 6 2 7 2 7 2 6 2 7 2 7 2 6 1 3 1 4 1 3 1 4 1 4v3l1 4 1 4 1 3 1 4 1 3 1 4 1 4 1 3 1 4 1 3 1 4 1 4 1 3 1 4 1 3 1 7 3 10 2 9 2 10 2 9 1 10 1 9 1 8v9 8 8l-1 8v8l-2 7-1 7-2 7-2 7-2 6-3 7-3 6-3 6-4 5-3 6-5 5-4 5-5 5-5 4-5 4-6 4-6 4-6 3-7 4-7 3-7 2-7 3-8 2-8 2-8 2-9 1-9 2-9 1-10 1h-10-10l-10 1h-11-11-11-11-11-11-11-11-11-11-11-11-11-11-11-11-10-11-11-11-11l-11-7-12-45-12-44-12-44-12-45-11-44-12-45-12-44-12-44-11-45-12-44-12-45-12-44-12-44-11-45-12-44-12-45-12-44-11-44-12-45-12-44-12-44-10-41h11 10 10 11 10 11 10 11 10 11 10 11 10 10 11 10 11 10 11 10 11z"/><path d="m601 1208 5 18 5 18 4 17 5 18 5 18 4 17 5 18 4 18 5 18 5 17 4 18 5 18 4 17 5 18 4 16h5 4 4 4 4 4 4 4 4 4 4 4 4 4 5 5l6-1h5l5-1 5-1 4-1 4-2 4-1 4-2 4-2 3-2 3-3 3-2 3-3 3-3 2-4 2-3 1-4 1-5 1-4 1-5v-6-6-6-6l-1-7-1-7-2-7-2-8-1-6-1-3-1-4-1-4-1-4-1-3-1-4-1-4-1-3v-4l-1-4-1-4-1-3-1-4-1-4-2-6-2-7-2-6-3-7-2-6-2-6-3-6-3-5-2-5-3-5-3-4-3-5-3-4-3-3-4-4-3-3-3-3-4-3-4-2-4-3-4-2-4-2-4-1-5-2-4-1-5-1-5-1h-5l-5-1h-6-5-5-5-5-5-5-5-5-5-5-5-5-5-5z"/><path d="m708 1609 5 19 5 18 4 19 5 18 5 19 5 19 5 18 5 19 5 18 4 19 5 18 5 19 5 18 5 19 5 18 5 19 5 7h5 6 5 5 6 5 5 6 5 6 5 5 6 5 6 5 4 5l4-1h4l4-1 4-1 4-1 3-1 3-2 3-1 3-2 3-2 2-2 3-2 2-2 2-3 2-3 1-2 2-4 1-3 1-4v-4l1-4v-4-5l-1-5v-5l-1-6-1-6-1-5-1-7-2-6-2-6-1-5-1-6-2-5-1-5-1-5-2-6-1-5-2-5-1-6-1-5-2-5-1-5-1-6-2-5-1-5-2-6-2-8-3-8-2-7-3-8-3-7-2-6-3-7-3-6-3-5-3-6-3-5-4-4-3-5-3-4-4-3-3-4-4-3-4-2-4-3-4-3-4-2-5-2-4-2-5-2-5-1-6-2-5-1-6-1-5-1h-6l-6-1h-7-5-4-5-4-4-4-4-5-4-4-4-4-4-5-4-4z"/></g><g clip-path="url(#o)" transform="matrix(.95345838 0 0 -.95345838 -55.831779 -123.74095)"><path d="m59.04-153.936h99.36v-141.696h-99.36z"/></g><g fill="none"><path d="m-82.7118-578.3351h1003.6676" transform="matrix(.95345838 0 0 -.95345838 -56.305288 -107.64164)"/><path d="m920.9558-578.3351v566.1136" transform="matrix(.95345838 0 0 -.95345838 -56.305288 -107.64164)"/><path d="m920.9558-12.2215h-1003.6676" transform="matrix(.95345838 0 0 -.95345838 -198.831493 10.73561)"/><path d="m-82.7118-12.2215v-566.1136" transform="matrix(.95345838 0 0 -.95345838 -56.305288 -107.64164)"/><path d="m529.0194-391.2042-15.3719-45.1922" transform="matrix(.95345838 0 0 -.95345838 -55.831779 -123.74095)"/><path d="m513.6475-436.3964h-24.3331" transform="matrix(.95345838 0 0 -.95345838 -55.831779 -123.74095)"/><path d="m489.3144-436.3964 47.9813 141.1273" transform="matrix(.95345838 0 0 -.95345838 -55.831779 -123.74095)"/><path d="m537.2957-295.2691h24.3319" transform="matrix(.95345838 0 0 -.95345838 -55.831779 -123.74095)"/><path d="m561.6276-295.2691-16.5767-48.741" transform="matrix(.95345838 0 0 -.95345838 -55.831779 -123.74095)"/><path d="m545.0509-344.0101 38.6027 48.741" transform="matrix(.95345838 0 0 -.95345838 -55.831779 -123.74095)"/><path d="m583.6536-295.2691h24.649" transform="matrix(.95345838 0 0 -.95345838 -55.831779 -123.74095)"/><path d="m608.3026-295.2691-47.7141-57.2692" transform="matrix(.95345838 0 0 -.95345838 -55.831779 -123.74095)"/><path d="m560.5885-352.5383 4.904-83.8581" transform="matrix(.95345838 0 0 -.95345838 -55.831779 -123.74095)"/><path d="m565.4925-436.3964h-27.0696" transform="matrix(.95345838 0 0 -.95345838 -55.831779 -123.74095)"/><path d="m538.4229-436.3964-1.5591 55.938" transform="matrix(.95345838 0 0 -.95345838 -55.831779 -123.74095)"/><path d="m536.8638-380.4584-7.8444-10.7458" transform="matrix(.95345838 0 0 -.95345838 -55.831779 -123.74095)"/><path d="m658.0065-329.0689.1813.5545.1616.5392.1413.5236.1216.5083.1017.4928.0818.4777.0617.4622.0421.4468.0219.4314.002.4162-.018.4006-.0376.3854-.0578.3699-.0776.3547-.0976.3392-.1173.3239-.1375.3083-.1573.2931-.1771.2779-.1972.2622-.217.2471-.2368.2316-.257.2162-.2768.2009-.2967.1857-.3165.17-.3365.1548-.3565.1394-.3762.1242-.3964.1086-.416.0933-.4362.0779-.456.0627-.4759.0471-.4959.0318-.5157.0165-.2653.002h-.0538-.0356-.0714-.2861-.5717-2.2872-4.5743-2.2872-.2861-.0357-.004l-.006-.0151-.0121-.0353-.024-.0708-.0962-.2828-.1922-.5655-.7694-2.262-1.5385-4.5243-6.1542-18.097-3.0771-9.0484-1.5386-4.5241-.3846-1.1311-.1924-.5655-.0481-.1414-.024-.0708-.009-.0302h.009.0716.5719 4.5742 4.5735.5718.0713l.0551.0001.1044.001.209.006.4195.0254.4209.0445.4226.063.4239.0818.4257.1007.4271.1195.4288.138.4302.1571.4317.1759.4333.1946.435.2135.4364.2322.4379.2511.4394.2698.4411.2888.4426.3076.4443.3262.4431.3436.43.3546.4154.3644.4009.3743.3863.3842.3718.3941.3571.4042.3423.414.328.424.3132.4338.2986.4438.2842.4536.2694.4637.255.4734.2403.4835.2257.4934.2112.5033.1965.513.0929.2605.0227.0653.0111.0328.006.019.0117.0341.0927.2735.7428 2.1873 5.9436 17.4981" transform="matrix(.95345838 0 0 -.95345838 -55.831779 -123.74095)"/><path d="m695.6834-436.3964-.7828.007-.7711.0225-.7595.0372-.7476.0522-.736.0673-.7244.082-.7127.097-.701.1119-.6892.1269-.6777.1417-.666.1567-.6541.1717-.6426.1865-.6309.2014-.619.2164-.6075.2314-.5958.2461-.5841.2612-.5723.276-.5607.2911-.5491.3059-.5372.3207-.5256.336-.5139.3506-.5022.3656-.4906.3805-.4789.3955-.467.4103-.4556.4254-.4437.4402-.4319.455-.4205.4701-.4086.4851-.397.4999-.3852.5148-.3737.5298-.3613.5438-.3453.5518-.3281.5584-.3109.5645-.2938.5712-.2768.5776-.2595.5839-.2424.5904-.2254.5969-.2081.6032-.191.6098-.1738.6161-.1569.6226-.1394.6289-.1226.6354-.1053.6419-.0882.6482-.071.6548-.0541.6611-.0367.6676-.0198.6741-.003.6804.0145.6869.0319.6932.0486.6997.0662.7063.083.7126.1002.7189.1174.7256.1344.7319.1516.7384.1688.7447.1858.7511.203.7576.2202.7641.2372.7706.2542.7769.033.0975.004.0123.0138.0409.0312.0911.0621.1827.2483.7308.4968 1.4614 1.9872 5.8452 3.9741 11.6905 15.8961 46.7622 7.9478 23.381 3.9739 11.6905.9934 2.9225.4967 1.4614.1243.3652.062.1827.0155.0457.008.0227.006.01h.021.1662 1.3308 10.6459 10.6454 1.3306.1664.0208l-.0004-.01-.008-.0229-.0155-.0455-.0621-.1821-.1237-.3645-.4955-1.4575-.9913-2.9147-3.9642-11.6603-7.9287-23.3203-15.8576-46.6403-3.9642-11.6603-1.9821-5.8301-.4955-1.4575-.2479-.7286-.0618-.1823-.0311-.091-.0134-.0398-.001-.004-.0111-.033-.0857-.2624-.1551-.5169-.1331-.5063-.1109-.4962-.089-.4856-.067-.4753-.0449-.4647-.0229-.4544-.0008-.444.0213-.4334.0435-.4232.0653-.4127.0875-.4023.1096-.3917.1315-.3813.1538-.371.1757-.3606.1978-.35.2195-.3393.2335-.3231.245-.3045.2566-.2862.2682-.2677.2797-.2492.2911-.2308.3027-.2123.3142-.1938.3258-.1755.3373-.1569.3489-.1385.3604-.12.3719-.1016.3835-.0831.3948-.0645.4065-.0462.4182-.0277.4296-.009.4328.009.4339.0277.4348.0464.4358.0649.4368.0832.4379.102.4389.1205.4396.139.4409.1575.4418.1761.4429.1945.4438.2132.4449.2317.4457.2502.4468.2688.4478.2873.4488.3058.4498.3245.4466.3407.4325.3513.4176.3617.4026.3716.3877.3818.3731.3922.3581.4022.3432.4126.3286.4228.3134.4326.2989.4432.2837.453.2692.4636.2541.4736.2393.4837.2246.4939.2096.5041.1947.5141.0918.2611.0112.0328.002.004.0134.0398.031.091.0619.1823.2478.7286.4955 1.4575 1.9821 5.8301 3.9642 11.6603 15.8576 46.6403 7.9288 23.3203 3.9642 11.6603.991 2.9147.4955 1.4575.124.3645.062.1821.0153.0455.008.0229.006.01h.0208.1664 1.3306 10.6451 10.6452 1.3306.1664.0208l-.0004-.01-.008-.0227-.0155-.0457-.062-.1827-.1242-.3652-.4968-1.4614-.9934-2.9225-3.9739-11.6905-7.9482-23.381-15.8961-46.7622-3.9739-11.6905-1.987-5.8452-.4967-1.4614-.2484-.7308-.0621-.1827-.031-.0911-.014-.0409-.004-.0125-.0338-.0987-.2771-.7864-.29-.7797-.3029-.7726-.3157-.7659-.3286-.7591-.3413-.7523-.3542-.7455-.3671-.7386-.3797-.7317-.3928-.725-.4055-.7179-.4183-.7114-.4314-.7044-.4441-.6974-.4567-.6909-.4698-.6838-.4827-.6773-.4953-.6702-.5083-.6633-.521-.6567-.5341-.6497-.5467-.6429-.5595-.6362-.5726-.6291-.5853-.6226-.5981-.6156-.6109-.6087-.6239-.6018-.6366-.5953-.6495-.5882-.6623-.5814-.6753-.5745-.6879-.5679-.7009-.5608-.7137-.5541-1.4641-1.0865-.7397-.525-.7407-.5103-.742-.4955-.7428-.4806-.7442-.466-.7451-.4511-.7465-.4362-.7472-.4216-.7487-.4067-.7496-.392-.7507-.3772-.7517-.3623-.7531-.3477-.7541-.3327-.755-.318-.7564-.3034-.7573-.2883-.7585-.2737-.7595-.2587-.7608-.244-.7618-.2294-.7628-.2143-.7642-.1998-.7651-.1848-.7662-.1701-.7673-.1554-.7686-.1404-.7695-.1259-.7706-.1109-.7719-.096-.7728-.0814-.774-.0666-.7752-.0518-.7762-.037-.7773-.0221-.7785-.007" transform="matrix(.95345838 0 0 -.95345838 -55.831779 -123.74095)"/><path d="m388.9943-249.8872h21.3533" transform="matrix(.95345838 0 0 -.95345838 -55.831779 -123.74095)"/><path d="m410.3476-249.8872-29.8117 71.2795" transform="matrix(.95345838 0 0 -.95345838 -55.831779 -123.74095)"/><path d="m451.4151-295.2745h-22.3454" transform="matrix(.95345838 0 0 -.95345838 -55.831779 -123.74095)"/><path d="m429.0697-295.2745-10.6769 25.5824" transform="matrix(.95345838 0 0 -.95345838 -55.831779 -123.74095)"/><path d="m418.3928-269.6921h-27.1808" transform="matrix(.95345838 0 0 -.95345838 -55.831779 -123.74095)"/><path d="m391.212-269.6921 3.0178-25.5824" transform="matrix(.95345838 0 0 -.95345838 -55.831779 -123.74095)"/><path d="m394.2298-295.2745h-20.3347" transform="matrix(.95345838 0 0 -.95345838 -55.831779 -123.74095)"/><path d="m373.8951-295.2745-15.0983 141.1143" transform="matrix(.95345838 0 0 -.95345838 -55.831779 -123.74095)"/><path d="m358.7968-154.1602h32.4152" transform="matrix(.95345838 0 0 -.95345838 -55.831779 -123.74095)"/><path d="m86.6139-173.9663 9.8649-37.9604h8.6644l.7659.0128.7377.0386.7093.064.6809.0898.6528.1154.6243.1412.5962.1666.5679.1923.5393.218.5112.2436.483.2692.4546.2948.4263.3204.3979.3462.3699.3716.3413.3972.3082.4311.2705.4731.2326.5145.1949.5564.1571.5981.1195.6398.0816.6816.0436.7234.006.7651-.0318.8068-.0694.8487-.1072.8904-.1451.9321-.1827.9739-.2205 1.0157-.2584 1.0574-2.0115 7.9939-.2824.9583-.2925.9247-.3025.891-.3129.8572-.3231.8235-.333.7897-.3434.7562-.3536.7225-.3636.6887-.374.6551-.384.6212-.3943.5876-.4045.554-.4147.5201-.4247.4864-.435.4527-.449.4224-.4672.3952-.4853.368-.5034.3405-.5215.3134-.5398.2861-.5578.2589-.576.2316-.594.2042-.6123.1771-.6303.1499-.6484.1226-.6667.0954-.6847.0681-.7028.0409-.7209.0135h-10.6771" transform="matrix(.95345838 0 0 -.95345838 -55.831779 -123.74095)"/><path d="m101.9193-231.7318 11.4761-43.7367h12.6878l.6908.0119.6643.0358.6377.0596.6107.0834.5841.107.5576.1311.5309.1548.504.1786.4775.2025.4507.2263.4242.2502.3972.2741.3708.2979.3439.3215.3172.3454.2906.3695.2599.4003.2251.4385.1907.4769.1559.5149.1212.5533.0867.5914.052.6297.0172.6678-.0172.7061-.052.7444-.0867.7825-.1212.8208-.1559.859-.1907.8973-.2251.9356-.2599.9738-3.223 12.404-.3584 1.2213-.3694 1.1718-.3804 1.1227-.3913 1.0735-.4023 1.0242-.4133.9749-.4239.9257-.435.8765-.4461.8271-.4567.7779-.4678.7287-.4789.6794-.4895.6301-.5006.5808-.5116.5316-.5223.4824-.5413.4435-.568.4147-.5949.3863-.6217.3576-.6488.329-.6753.3004-.7024.2719-.7291.2432-.756.2145-.7829.1862-.8097.1573-.8367.1288-.8634.1-.8904.0716-.9172.0431-.9441.0141z" transform="matrix(.95345838 0 0 -.95345838 -55.831779 -123.74095)"/><path d="m310.4819-239.0301-3.4171-12.9067" transform="matrix(.95345838 0 0 -.95345838 -55.831779 -123.74095)"/><path d="m307.0648-251.9368 11.4764-43.3377" transform="matrix(.95345838 0 0 -.95345838 -55.831779 -123.74095)"/><path d="m318.5412-295.2745h-22.1524" transform="matrix(.95345838 0 0 -.95345838 -55.831779 -123.74095)"/><path d="m296.3888-295.2745-37.4577 141.1143" transform="matrix(.95345838 0 0 -.95345838 -55.831779 -123.74095)"/><path d="m258.9311-154.1602h21.9462" transform="matrix(.95345838 0 0 -.95345838 -55.831779 -123.74095)"/><path d="m280.8773-154.1602 16.3108-61.4799" transform="matrix(.95345838 0 0 -.95345838 -55.831779 -123.74095)"/><path d="m297.1881-215.6401 12.6875 61.4799" transform="matrix(.95345838 0 0 -.95345838 -55.831779 -123.74095)"/><path d="m309.8756-154.1602h22.1524" transform="matrix(.95345838 0 0 -.95345838 -55.831779 -123.74095)"/><path d="m332.028-154.1602-14.0929-62.8984" transform="matrix(.95345838 0 0 -.95345838 -55.831779 -123.74095)"/><path d="m317.9351-217.0586 51.7438-78.2159" transform="matrix(.95345838 0 0 -.95345838 -55.831779 -123.74095)"/><path d="m369.6789-295.2745h-22.7456" transform="matrix(.95345838 0 0 -.95345838 -55.831779 -123.74095)"/><path d="m346.9333-295.2745-36.4514 56.2444" transform="matrix(.95345838 0 0 -.95345838 -55.831779 -123.74095)"/><path d="m220.9706-154.1602h21.9464" transform="matrix(.95345838 0 0 -.95345838 -55.831779 -123.74095)"/><path d="m242.917-154.1602 37.6637-141.1143" transform="matrix(.95345838 0 0 -.95345838 -55.831779 -123.74095)"/><path d="m280.5807-295.2745h-22.1523" transform="matrix(.95345838 0 0 -.95345838 -55.831779 -123.74095)"/><path d="m258.4284-295.2745-37.4578 141.1143" transform="matrix(.95345838 0 0 -.95345838 -55.831779 -123.74095)"/></g><g clip-path="url(#p)" transform="matrix(.95345838 0 0 -.95345838 -55.77305 -123.7503)"><path d="m428.832-295.056h83.088v-141.696h-83.088z"/></g></svg>